*
G04 Mass Parameters ***
*
G04 Image ***
*
%IND:\UTENTI\00.LAVORI IN CORSO\METALTRONICA\22-316-1\22-316-1.BOT*%
%ICAS*%
%MOIN*%
%IPPOS*%
%ASAXBY*%
G74*%FSLAN2X34Y34*%
*
G04 Aperture Definitions ***
*
%ADD10C,0.0787*%
%ADD11R,0.0394X0.0118*%
%ADD12R,0.0512X0.0650*%
%ADD13C,0.0551*%
%ADD14C,0.0394*%
%ADD15C,0.0394*%
%ADD16C,0.0120*%
%ADD17C,0.0394*%
%ADD18C,0.0100*%
%ADD19C,0.0060*%
%ADD20R,0.0354X0.0709*%
*
G04 Plot Data ***
*
G54D16*
G01X0003700Y0000500D02*
X0003839Y0000640D01*
Y0001201D01*
Y-0001201D02*
Y-0001089D01*
X0003400Y-0000650D01*
X0002500Y-0000550D02*
X0002550D01*
X0002854Y-0000854D01*
Y-0001201D01*
X0002500Y0000500D02*
X0002850Y0000850D01*
Y0001000D01*
X0002854Y0001201D01*
G54D19*
G01X0008160Y-0001287D02*
Y-0001333D01*
X0008093D01*
Y-0001287D01*
X0008160D01*
X0007827Y-0001097D02*
X0007760Y-0001073D01*
Y-0000933D01*
X0007827Y-0000910D01*
X0007893D01*
X0007960Y-0000933D01*
Y-0001073D01*
X0008027Y-0001097D01*
X0008093D01*
X0008160Y-0001073D01*
Y-0000933D01*
X0008093Y-0000910D01*
X0008160Y-0000720D02*
Y-0000767D01*
X0008093D01*
Y-0000720D01*
X0008160D01*
Y-0000530D02*
Y-0000367D01*
X0007760D01*
G54D10*
X0006693Y0000000D03*
X0000000D03*
G54D13*
X0002854D03*
G54D14*
X0003839D03*
G54D15*
X0002500Y0000500D03*
G54D17*
X0003700D03*
X0003400Y-0000650D03*
X0002500Y-0000550D03*
G54D20*
X0003839Y0001201D03*
Y-0001201D03*
X0002854D03*
Y0001201D03*
M02*
