*
G04 Mass Parameters ***
*
G04 Image ***
*
%IND:\UTENTI\00.LAVORI IN CORSO\METALTRONICA\22-316-1\22-316-1.SSB*%
%ICAS*%
%MOIN*%
%IPPOS*%
%ASAXBY*%
G74*%FSLAN2X34Y34*%
*
G04 Aperture Definitions ***
*
%ADD10C,0.0787*%
%ADD11R,0.0394X0.0118*%
%ADD12R,0.0512X0.0650*%
%ADD13C,0.0551*%
%ADD14C,0.0394*%
%ADD15C,0.0394*%
%ADD16C,0.0120*%
%ADD17C,0.0394*%
%ADD18C,0.0100*%
%ADD19C,0.0060*%
%ADD20R,0.0354X0.0709*%
*
G04 Plot Data ***
*
G54D19*
G01X0002280Y0000727D02*
Y0000820D01*
Y0000773D02*
X0001880D01*
X0001946Y0000820D01*
X0002213Y0001010D02*
X0002280Y0001033D01*
Y0001173D01*
X0002213Y0001197D01*
X0001946D01*
X0001880Y0001173D01*
Y0001033D01*
X0001946Y0001010D01*
X0002280Y0001503D02*
X0002213Y0001527D01*
X0001946D01*
X0001880Y0001503D01*
Y0001363D01*
X0001946Y0001340D01*
X0002213D01*
X0002280Y0001363D01*
Y0001503D01*
X0003740Y-0001260D02*
Y-0001457D01*
X0003937D01*
Y-0001260D01*
X0002756Y0001260D02*
Y0001457D01*
X0002953D01*
Y0001260D01*
X0002756Y-0001260D02*
Y-0001457D01*
X0002953D01*
Y-0001260D01*
X0004173Y0000590D02*
X0003898D01*
X0002520D02*
X0003898D01*
Y0001260D01*
X0002520D01*
Y0000590D01*
Y0000197D01*
Y-0000197D01*
Y-0000590D01*
X0003898D01*
Y-0001260D01*
X0004173D01*
Y-0000590D01*
X0003898D01*
X0002520D02*
Y-0001260D01*
X0003898D01*
X0004173Y-0000590D02*
Y-0000197D01*
Y0000197D01*
Y0000590D01*
Y0001260D01*
X0003898D01*
X0003937D02*
Y0001457D01*
X0003740D01*
Y0001260D01*
M02*
