*
G04 Mass Parameters ***
*
G04 Image ***
*
%IND:\UTENTI\00.LAVORI IN CORSO\METALTRONICA\22-316-1\22-316-1.TOP*%
%ICAS*%
%MOIN*%
%IPPOS*%
%ASAXBY*%
G74*%FSLAN2X34Y34*%
*
G04 Aperture Definitions ***
*
%ADD10C,0.0787*%
%ADD11R,0.0394X0.0118*%
%ADD12R,0.0512X0.0650*%
%ADD13C,0.0551*%
%ADD14C,0.0394*%
%ADD15C,0.0394*%
%ADD16C,0.0120*%
%ADD17C,0.0394*%
%ADD18C,0.0100*%
%ADD19C,0.0060*%
*
G04 Plot Data ***
*
G54D16*
G01X0006752Y-0005553D02*
X0007097D01*
X0007250Y-0005400D01*
Y-0005100D01*
X0007050Y-0004900D01*
X0005350D01*
X0004250Y-0003800D01*
Y0000200D01*
X0003950Y0000500D01*
X0003700D01*
X0003400Y-0000650D02*
X0003750Y-0001000D01*
Y-0004050D01*
X0005100Y-0005400D01*
X0006050D01*
X0006597Y-0005947D01*
X0006752D01*
Y-0006340D02*
X0006590D01*
X0005900Y-0005650D01*
X0005000D01*
X0003500Y-0004150D01*
Y-0001500D01*
X0002550Y-0000550D01*
X0002500D01*
X0006752Y-0005159D02*
X0005259D01*
X0004000Y-0003900D01*
Y-0000700D01*
X0003450Y-0000150D01*
Y0000100D01*
X0003050Y0000500D01*
X0002500D01*
G54D18*
G01X-0001208Y-0000850D02*
Y-0001017D01*
Y-0000933D02*
X-0001708D01*
X-0001625Y-0001017D01*
X-0001458Y-0001342D02*
Y-0001675D01*
Y-0002208D02*
Y-0001958D01*
X-0001375Y-0001917D01*
X-0001292D01*
X-0001208Y-0001958D01*
Y-0002208D01*
X-0001292Y-0002250D01*
X-0001375D01*
X-0001708Y-0002083D01*
X-0001208Y-0002492D02*
Y-0002658D01*
Y-0002575D02*
X-0001708D01*
X-0001625Y-0002658D01*
X-0001292Y-0003317D02*
X-0001208Y-0003233D01*
Y-0003067D01*
X-0001292Y-0002983D01*
X-0001375D01*
X-0001542Y-0003150D01*
X-0001708Y-0002983D01*
Y-0003317D01*
X-0001458Y-0003558D02*
Y-0003892D01*
X-0001208Y-0004133D02*
Y-0004467D01*
X-0001542Y-0004133D01*
X-0001625D01*
X-0001708Y-0004175D01*
Y-0004425D01*
X-0001625Y-0004467D01*
X-0001208Y-0004708D02*
Y-0005042D01*
X-0001542Y-0004708D01*
X-0001625D01*
X-0001708Y-0004750D01*
Y-0005000D01*
X-0001625Y-0005042D01*
G54D19*
G01X0008173Y-0001663D02*
Y-0001617D01*
X0008107D01*
Y-0001663D01*
X0008173D01*
X0008107Y-0001853D02*
X0008173Y-0001877D01*
Y-0002017D01*
X0008107Y-0002040D01*
X0007840D01*
X0007773Y-0002017D01*
Y-0001877D01*
X0007840Y-0001853D01*
X0008173Y-0002230D02*
Y-0002183D01*
X0008107D01*
Y-0002230D01*
X0008173D01*
Y-0002420D02*
Y-0002583D01*
X0007773D01*
G54D10*
X0006693Y0000000D03*
X0000000D03*
G54D11*
X0006752Y-0005159D03*
Y-0005553D03*
Y-0005947D03*
Y-0006340D03*
G54D12*
X0007500Y-0007433D03*
Y-0004067D03*
G54D13*
X0002854Y0000000D03*
G54D14*
X0003839D03*
G54D15*
X0002500Y0000500D03*
G54D17*
X0003700D03*
X0003400Y-0000650D03*
X0002500Y-0000550D03*
M02*
