*
G04 Mass Parameters ***
*
G04 Image ***
*
%IND:\UTENTI\00.LAVORI IN CORSO\METALTRONICA\22-316-1\22-316-1.SST*%
%ICAS*%
%MOIN*%
%IPPOS*%
%ASAXBY*%
G74*%FSLAN2X34Y34*%
*
G04 Aperture Definitions ***
*
%ADD10C,0.0787*%
%ADD11R,0.0394X0.0118*%
%ADD12R,0.0512X0.0650*%
%ADD13C,0.0551*%
%ADD14C,0.0394*%
%ADD15C,0.0394*%
%ADD16C,0.0120*%
%ADD17C,0.0394*%
%ADD18C,0.0100*%
%ADD19C,0.0060*%
%ADD20R,0.0354X0.0709*%
*
G04 Plot Data ***
*
G54D18*
G01X-0001208Y-0000850D02*
Y-0001017D01*
Y-0000933D02*
X-0001708D01*
X-0001625Y-0001017D01*
X-0001458Y-0001342D02*
Y-0001675D01*
Y-0002208D02*
Y-0001958D01*
X-0001375Y-0001917D01*
X-0001292D01*
X-0001208Y-0001958D01*
Y-0002208D01*
X-0001292Y-0002250D01*
X-0001375D01*
X-0001708Y-0002083D01*
X-0001208Y-0002492D02*
Y-0002658D01*
Y-0002575D02*
X-0001708D01*
X-0001625Y-0002658D01*
X-0001292Y-0003317D02*
X-0001208Y-0003233D01*
Y-0003067D01*
X-0001292Y-0002983D01*
X-0001375D01*
X-0001542Y-0003150D01*
X-0001708Y-0002983D01*
Y-0003317D01*
X-0001458Y-0003558D02*
Y-0003892D01*
X-0001208Y-0004133D02*
Y-0004467D01*
X-0001542Y-0004133D01*
X-0001625D01*
X-0001708Y-0004175D01*
Y-0004425D01*
X-0001625Y-0004467D01*
X-0001208Y-0004708D02*
Y-0005042D01*
X-0001542Y-0004708D01*
X-0001625D01*
X-0001708Y-0004750D01*
Y-0005000D01*
X-0001625Y-0005042D01*
X0001000Y-0003500D02*
X0000250D01*
X0001000Y-0003590D02*
X0000250D01*
X0001000Y-0003680D02*
X0000250D01*
X0001000Y-0003770D02*
X0000250D01*
X0001000Y-0003860D02*
X0000250D01*
X0001000Y-0003950D02*
X0000250D01*
X0001000Y-0004040D02*
X0000250D01*
X0001000Y-0004130D02*
X0000250D01*
X0001000Y-0004220D02*
X0000250D01*
X0001000Y-0004310D02*
X0000250D01*
X0001000Y-0004400D02*
X0000250D01*
X0001000Y-0004490D02*
X0000250D01*
X0001000Y-0004580D02*
X0000250D01*
X0001000Y-0004670D02*
X0000250D01*
X0001000Y-0004760D02*
X0000250D01*
X0001000Y-0004850D02*
X0000250D01*
X0001000Y-0004940D02*
X0000250D01*
X0001000Y-0005030D02*
X0000250D01*
X0001000Y-0005120D02*
X0000250D01*
X0001000Y-0001790D02*
X0000250D01*
X0001000Y-0001880D02*
X0000250D01*
X0001000Y-0001970D02*
X0000250D01*
X0001000Y-0002060D02*
X0000250D01*
X0001000Y-0002150D02*
X0000250D01*
X0001000Y-0002240D02*
X0000250D01*
X0001000Y-0002330D02*
X0000250D01*
X0001000Y-0002420D02*
X0000250D01*
X0001000Y-0002510D02*
X0000250D01*
X0001000Y-0002600D02*
X0000250D01*
X0001000Y-0002690D02*
X0000250D01*
X0001000Y-0002780D02*
X0000250D01*
X0001000Y-0002870D02*
X0000250D01*
X0001000Y-0002960D02*
X0000250D01*
X0001000Y-0003050D02*
X0000250D01*
X0001000Y-0003140D02*
X0000250D01*
X0001000Y-0003230D02*
X0000250D01*
X0001000Y-0003320D02*
X0000250D01*
X0001000Y-0003410D02*
X0000250D01*
X0000920Y-0001000D02*
Y-0005250D01*
X0000830Y-0001000D02*
Y-0005250D01*
X0000740Y-0001000D02*
Y-0005250D01*
X0000650Y-0001000D02*
Y-0005250D01*
X0000560Y-0001000D02*
Y-0005250D01*
X0000470Y-0001000D02*
Y-0005250D01*
X0000380Y-0001000D02*
Y-0005250D01*
X0000290Y-0001000D02*
Y-0005250D01*
X0001000Y-0001070D02*
X0000250D01*
X0001000Y-0001160D02*
X0000250D01*
X0001000Y-0001250D02*
X0000250D01*
X0001000Y-0001340D02*
X0000250D01*
X0001000Y-0001430D02*
X0000250D01*
X0001000Y-0001520D02*
X0000250D01*
X0001000Y-0001610D02*
X0000250D01*
X0001000Y-0001700D02*
X0000250D01*
X0001000Y-0005210D02*
X0000250D01*
X0001000Y-0005250D02*
X0000250D01*
Y-0001000D02*
Y-0005250D01*
X0001000Y-0001000D02*
X0000250D01*
X0001000D02*
Y-0005250D01*
X0002000Y-0003500D02*
X0001250D01*
X0002000Y-0003590D02*
X0001250D01*
X0002000Y-0003680D02*
X0001250D01*
X0002000Y-0003770D02*
X0001250D01*
X0002000Y-0003860D02*
X0001250D01*
X0002000Y-0003950D02*
X0001250D01*
X0002000Y-0004040D02*
X0001250D01*
X0002000Y-0004130D02*
X0001250D01*
X0002000Y-0004220D02*
X0001250D01*
X0002000Y-0004310D02*
X0001250D01*
X0002000Y-0004400D02*
X0001250D01*
X0002000Y-0004490D02*
X0001250D01*
X0002000Y-0004580D02*
X0001250D01*
X0002000Y-0004670D02*
X0001250D01*
X0002000Y-0004760D02*
X0001250D01*
X0002000Y-0004850D02*
X0001250D01*
X0002000Y-0004940D02*
X0001250D01*
X0002000Y-0005030D02*
X0001250D01*
X0002000Y-0005120D02*
X0001250D01*
X0002000Y-0001790D02*
X0001250D01*
X0002000Y-0001880D02*
X0001250D01*
X0002000Y-0001970D02*
X0001250D01*
X0002000Y-0002060D02*
X0001250D01*
X0002000Y-0002150D02*
X0001250D01*
X0002000Y-0002240D02*
X0001250D01*
X0002000Y-0002330D02*
X0001250D01*
X0002000Y-0002420D02*
X0001250D01*
X0002000Y-0002510D02*
X0001250D01*
X0002000Y-0002600D02*
X0001250D01*
X0002000Y-0002690D02*
X0001250D01*
X0002000Y-0002780D02*
X0001250D01*
X0002000Y-0002870D02*
X0001250D01*
X0002000Y-0002960D02*
X0001250D01*
X0002000Y-0003050D02*
X0001250D01*
X0002000Y-0003140D02*
X0001250D01*
X0002000Y-0003230D02*
X0001250D01*
X0002000Y-0003320D02*
X0001250D01*
X0002000Y-0003410D02*
X0001250D01*
X0001920Y-0001000D02*
Y-0005250D01*
X0001830Y-0001000D02*
Y-0005250D01*
X0001740Y-0001000D02*
Y-0005250D01*
X0001650Y-0001000D02*
Y-0005250D01*
X0001560Y-0001000D02*
Y-0005250D01*
X0001470Y-0001000D02*
Y-0005250D01*
X0001380Y-0001000D02*
Y-0005250D01*
X0001290Y-0001000D02*
Y-0005250D01*
X0002000Y-0001070D02*
X0001250D01*
X0002000Y-0001160D02*
X0001250D01*
X0002000Y-0001250D02*
X0001250D01*
X0002000Y-0001340D02*
X0001250D01*
X0002000Y-0001430D02*
X0001250D01*
X0002000Y-0001520D02*
X0001250D01*
X0002000Y-0001610D02*
X0001250D01*
X0002000Y-0001700D02*
X0001250D01*
X0002000Y-0005210D02*
X0001250D01*
X0002000Y-0005250D02*
X0001250D01*
Y-0001000D02*
Y-0005250D01*
X0002000Y-0001000D02*
X0001250D01*
X0002000D02*
Y-0005250D01*
G54D19*
G01X0000622Y-0005971D02*
Y-0006282D01*
X0000955Y-0005971D02*
X0000289D01*
X0000955Y-0006282D02*
X0000289D01*
X0000844Y-0006441D02*
X0000955Y-0006480D01*
Y-0006713D01*
X0000844Y-0006752D01*
X0000400D01*
X0000289Y-0006713D01*
Y-0006480D01*
X0000400Y-0006441D01*
Y-0006911D02*
X0000289Y-0006950D01*
Y-0007183D01*
X0000400Y-0007222D01*
X0000511D01*
X0000622Y-0007183D01*
Y-0006950D01*
X0000733Y-0006911D01*
X0000844D01*
X0000955Y-0006950D01*
Y-0007183D01*
X0000844Y-0007222D01*
X0001955Y-0005657D02*
X0001622D01*
X0001289Y-0005501D02*
X0001622Y-0005618D01*
Y-0005696D01*
X0001289Y-0005812D01*
X0001400Y-0005971D02*
X0001289Y-0006010D01*
Y-0006243D01*
X0001400Y-0006282D01*
X0001511D01*
X0001622Y-0006243D01*
Y-0006010D01*
X0001733Y-0005971D01*
X0001844D01*
X0001955Y-0006010D01*
Y-0006243D01*
X0001844Y-0006282D01*
X0001400Y-0006441D02*
X0001289Y-0006480D01*
Y-0006713D01*
X0001400Y-0006752D01*
X0001511D01*
X0001622Y-0006713D01*
Y-0006480D01*
X0001733Y-0006441D01*
X0001844D01*
X0001955Y-0006480D01*
Y-0006713D01*
X0001844Y-0006752D01*
X0001733Y-0006911D02*
Y-0007222D01*
X0001955Y-0006911D02*
X0001622D01*
X0001289Y-0007028D01*
Y-0007106D01*
X0001622Y-0007222D01*
X0001955D01*
X0006833Y-0006537D02*
Y-0006630D01*
Y-0006583D02*
X0006433D01*
X0006500Y-0006630D01*
X0008133Y-0002930D02*
Y-0003023D01*
Y-0002977D02*
X0007733D01*
X0007800Y-0003023D01*
X0008000Y-0003377D02*
X0008067D01*
X0008133Y-0003353D01*
Y-0003260D01*
X0008067Y-0003237D01*
X0007733D01*
Y-0003213D02*
Y-0003307D01*
X0007298Y-0004565D02*
Y-0004529D01*
X0007232Y-0004565D01*
Y-0004646D01*
X0007657Y-0006852D02*
Y-0006935D01*
Y-0007640D01*
X0007539D01*
Y-0007561D01*
X0007461D02*
Y-0007640D01*
X0007342D01*
Y-0007372D01*
X0007348Y-0007349D02*
X0007415Y-0007223D01*
X0007421Y-0007200D02*
Y-0007105D01*
X0007362Y-0007006D02*
X0007298Y-0006971D01*
X0007232Y-0006935D01*
Y-0006854D01*
X0007298Y-0006935D02*
Y-0006971D01*
X0007657Y-0004648D02*
Y-0004565D01*
Y-0003860D01*
X0007539D01*
Y-0003939D01*
X0007461D02*
Y-0003860D01*
X0007342D01*
Y-0004128D01*
X0007348Y-0004151D02*
X0007415Y-0004277D01*
X0007421Y-0004300D02*
Y-0004395D01*
X0007362Y-0004494D02*
X0007298Y-0004529D01*
X0007146Y-0006498D02*
X0007027D01*
X0006988Y-0006459D01*
Y-0006419D01*
X0007027Y-0006380D01*
X0007146D01*
X0006909Y-0005907D02*
X0006890D01*
X0006732D01*
Y-0005986D01*
X0006890D01*
X0006909D01*
Y-0005907D01*
X0006929D01*
Y-0005986D01*
X0006968D01*
X0007027D01*
X0007146D01*
X0006909Y-0005514D02*
X0006890D01*
X0006732D01*
Y-0005592D01*
X0006890D01*
X0006909D01*
Y-0005514D01*
X0006929D01*
Y-0005592D01*
X0006968D01*
X0007027D01*
X0007146D01*
X0006909Y-0005120D02*
X0006890D01*
X0006732D01*
Y-0005199D01*
X0006890D01*
X0006909D01*
Y-0005120D01*
X0006929D01*
Y-0005199D01*
X0006968D01*
X0007027D01*
X0007146D01*
X0006988Y-0004766D02*
Y-0004884D01*
X0007027Y-0004923D01*
X0007146D01*
X0007027Y-0005199D02*
X0006988Y-0005238D01*
Y-0005277D01*
X0007027Y-0005317D01*
X0007146D01*
X0007027Y-0005592D02*
X0006988Y-0005632D01*
Y-0005671D01*
X0007027Y-0005711D01*
X0007146D01*
Y-0006104D02*
X0007145D01*
X0007146D01*
Y-0006103D01*
Y-0004766D01*
X0006909D01*
Y-0004687D01*
X0006949Y-0004648D01*
X0007697D01*
Y-0004274D01*
X0007972D01*
Y-0007226D01*
X0007697D01*
Y-0006852D01*
X0006949D01*
X0006909Y-0006813D01*
Y-0006734D01*
X0007146D01*
Y-0006104D01*
X0007027D01*
X0006988Y-0006065D01*
Y-0006026D01*
X0007027Y-0005986D01*
X0006988Y-0006734D02*
Y-0006616D01*
X0007027Y-0006577D01*
X0007146D01*
Y-0006301D02*
X0007027D01*
X0006988Y-0006262D01*
Y-0006222D01*
X0007027Y-0006183D01*
X0007146D01*
Y-0005907D02*
X0007027D01*
X0006988Y-0005868D01*
Y-0005829D01*
X0007027Y-0005789D01*
X0007146D01*
Y-0005394D02*
Y-0005396D01*
X0007027D01*
X0006988Y-0005435D01*
Y-0005474D01*
X0007027Y-0005514D01*
X0007146D01*
Y-0005120D02*
X0007027D01*
X0006988Y-0005081D01*
Y-0005041D01*
X0007027Y-0005002D01*
X0007146D01*
X0007972Y-0007128D02*
X0008051D01*
X0007342Y-0004018D02*
X0006988D01*
X0006909Y-0004096D02*
Y-0004234D01*
X0007106Y-0004372D01*
X0007363D01*
Y-0004283D01*
X0007366Y-0004281D01*
X0007972Y-0004372D02*
X0008051D01*
X0008018Y-0006994D02*
X0008051Y-0007010D01*
Y-0007758D01*
X0008405D01*
Y-0003742D01*
X0008051D01*
Y-0004490D01*
X0008018Y-0004506D01*
X0006929Y-0005907D02*
X0006968D01*
X0007027D01*
X0006929Y-0005514D02*
X0006968D01*
X0007027D01*
X0006929Y-0005120D02*
X0006968D01*
X0007027D01*
X0006949Y-0006852D02*
X0006909D01*
Y-0006931D01*
X0006949D01*
X0007232D01*
X0007342Y-0007482D02*
X0006988D01*
X0006909Y-0007403D02*
Y-0007266D01*
X0007106Y-0007128D01*
X0007363D01*
X0007421D01*
X0007697Y-0007088D02*
X0007657D01*
X0006909Y-0005986D02*
X0006929D01*
X0007126D02*
Y-0005907D01*
X0006909Y-0005592D02*
X0006929D01*
X0007126D02*
Y-0005514D01*
X0006909Y-0005199D02*
X0006929D01*
X0007126D02*
Y-0005120D01*
X0007657Y-0006931D02*
X0007697D01*
X0007363Y-0007128D02*
Y-0007217D01*
X0007697Y-0004569D02*
X0007657D01*
X0006949Y-0004411D02*
Y-0004569D01*
X0006909Y-0004529D01*
Y-0004411D01*
X0006949D01*
X0007420D01*
X0007657Y-0007128D02*
X0007697D01*
X0006909Y-0006380D02*
X0006890D01*
X0006732D01*
Y-0006301D01*
X0006890D01*
X0006909D01*
Y-0006380D01*
X0006929D01*
Y-0006301D01*
X0006968D01*
X0007027D01*
X0006949Y-0004648D02*
X0006909D01*
Y-0004569D01*
X0006949D01*
X0007232D01*
X0007126Y-0004923D02*
Y-0005002D01*
Y-0005317D02*
Y-0005396D01*
Y-0005711D02*
Y-0005789D01*
Y-0006104D02*
Y-0006183D01*
Y-0006498D02*
Y-0006577D01*
X0006949Y-0007088D02*
X0006909D01*
Y-0006970D01*
X0006949Y-0006931D01*
Y-0007088D01*
X0007419D01*
X0007657Y-0004411D02*
X0007697D01*
Y-0004372D02*
X0007657D01*
X0007232Y-0004647D02*
Y-0004648D01*
X0007972Y-0007482D02*
X0007657D01*
X0007686Y-0004278D02*
X0007677Y-0004283D01*
X0007657Y-0004018D02*
X0007972D01*
X0007421Y-0004372D02*
X0007363D01*
X0007027Y-0006380D02*
X0006968D01*
X0006929D01*
X0006909Y-0006301D02*
X0006929D01*
X0007126Y-0006380D02*
Y-0006301D01*
G01X0007232Y-0004646D02*
G03X0007298Y-0004565I0000017J0000081D01*
G01X0007539Y-0007561D02*
G03X0007500Y-0007522I0000039J0000000D01*
G03X0007461Y-0007561I0000000J0000039D01*
G01X0007348Y-0007349D02*
G03X0007342Y-0007372I0000044J0000023D01*
G01X0007415Y-0007223D02*
G03X0007421Y-0007200I0000043J0000023D01*
Y-0007105D02*
G03X0007362Y-0007006I0000113J0000000D01*
G01X0007298Y-0006935D02*
G03X0007232Y-0006854I0000083J0000000D01*
G01X0007500Y-0003978D02*
G03X0007539Y-0003939I0000000J0000039D01*
G01X0007461D02*
G03X0007500Y-0003978I0000039J0000000D01*
G01X0007342Y-0004128D02*
G03X0007348Y-0004151I0000050J0000000D01*
G01X0007421Y-0004300D02*
G03X0007415Y-0004277I0000049J0000000D01*
G01X0007362Y-0004494D02*
G03X0007421Y-0004395I0000054J0000099D01*
G01X0007837Y-0007284D02*
G03X0008051Y-0007128I0000000J0000226D01*
G01X0007677Y-0007217D02*
G03X0007837Y-0007284I0000160J0000159D01*
G01X0007677Y-0007217D02*
G03X0007657Y-0007208I0000073J0000136D01*
G01X0006988Y-0004018D02*
G03X0006910Y-0004096I0000000J0000078D01*
G01X0007366Y-0004281D02*
G03X0007363Y-0004283I0000081J0000160D01*
G01X0007409Y-0004266D02*
G03X0007363Y-0004283I0000038J0000175D01*
G01X0008051Y-0004372D02*
G03X0007837Y-0004217I0000214J0000070D01*
Y-0004216D02*
G03X0007677Y-0004283I0000000J0000226D01*
G01X0007657Y-0004292D02*
G03X0007677Y-0004283I0000053J0000145D01*
G01X0007972Y-0006923D02*
G03X0008018Y-0006994I0000079J0000000D01*
Y-0004506D02*
G03X0007973Y-0004577I0000033J0000071D01*
G01X0006909Y-0007403D02*
G03X0006988Y-0007482I0000079J0000000D01*
G01X0007363Y-0007217D02*
G03X0007409Y-0007234I0000084J0000158D01*
G01X0008051Y-0007561D02*
G03X0007972Y-0007482I0000079J0000000D01*
G01X0007674Y-0004284D02*
G03X0007677Y-0004283I0000070J0000137D01*
G01X0007972Y-0004018D02*
G03X0008051Y-0003939I0000000J0000079D01*
M02*
