*
G04 Mass Parameters ***
*
G04 Image ***
*
%IND:\UTENTI\00.LAVORI IN CORSO\METALTRONICA\22-316-1\22-316-1.DRD*%
%ICAS*%
%MOIN*%
%IPPOS*%
%ASAXBY*%
G74*%FSLAN2X34Y34*%
*
G04 Aperture Definitions ***
*
%ADD10C,0.0787*%
%ADD11R,0.0394X0.0118*%
%ADD12R,0.0512X0.0650*%
%ADD13C,0.0551*%
%ADD14C,0.0394*%
%ADD15C,0.0394*%
%ADD16C,0.0120*%
%ADD17C,0.0394*%
%ADD18C,0.0100*%
%ADD19C,0.0060*%
%ADD20R,0.0354X0.0709*%
*
G04 Plot Data ***
*
G54D18*
G01X0022875Y-0021833D02*
X0022958Y-0021667D01*
Y-0021500D01*
X0022875Y-0021333D01*
X0022375D01*
X0022292Y-0021500D01*
Y-0021667D01*
X0022375Y-0021833D01*
X0022875D01*
X0022958Y-0022000D01*
Y-0022167D01*
X0022875Y-0022333D01*
X0022375D01*
X0022292Y-0022167D01*
Y-0022000D01*
X0022375Y-0021833D01*
X0010562Y-0022333D02*
X0009979D01*
Y-0021333D01*
X0009696Y-0022000D02*
X0009029D01*
X0009696Y-0022333D02*
Y-0021833D01*
X0009446Y-0021333D01*
X0009279D01*
X0009029Y-0021833D01*
Y-0022333D01*
X0008412D02*
Y-0021333D01*
X0008746D02*
X0008079D01*
X0007212Y-0022333D02*
X0007129Y-0022167D01*
Y-0021500D01*
X0007212Y-0021333D01*
X0007712D01*
X0007796Y-0021500D01*
Y-0022167D01*
X0007712Y-0022333D01*
X0007212D01*
X0006512D02*
Y-0021333D01*
X0006846D02*
X0006179D01*
X0030814Y-0020472D02*
Y-0019806D01*
X0030758Y-0020472D02*
X0031091D01*
X0031203Y-0020250D01*
Y-0020028D01*
X0031091Y-0019806D01*
X0030758D01*
X0030391Y-0020139D02*
X0030058D01*
X0030503Y-0020472D02*
X0030058D01*
Y-0019806D01*
X0030503D01*
X0029580Y-0020472D02*
Y-0019806D01*
X0029803D02*
X0029358D01*
X0029103Y-0020250D02*
X0028658D01*
X0029103Y-0020472D02*
Y-0020139D01*
X0028936Y-0019806D01*
X0028825D01*
X0028658Y-0020139D01*
Y-0020472D01*
X0028403D02*
X0028014D01*
Y-0019806D01*
X0027314Y-0020139D02*
X0027647D01*
X0027758Y-0020028D01*
Y-0019917D01*
X0027647Y-0019806D01*
X0027314D01*
Y-0020472D01*
X0027058Y-0020139D02*
X0026614D01*
X0026358Y-0019806D02*
Y-0020472D01*
X0026247Y-0020361D01*
X0026025Y-0019917D01*
X0025914Y-0019806D01*
Y-0020472D01*
X0025269D02*
X0025214Y-0020361D01*
Y-0019917D01*
X0025269Y-0019806D01*
X0025603D01*
X0025658Y-0019917D01*
Y-0020361D01*
X0025603Y-0020472D01*
X0025269D01*
X0024958Y-0019806D02*
Y-0020472D01*
X0024847Y-0020361D01*
X0024625Y-0019917D01*
X0024514Y-0019806D01*
Y-0020472D01*
X0022958D02*
X0022514D01*
X0022958Y-0020028D01*
Y-0019917D01*
X0022903Y-0019806D01*
X0022569D01*
X0022514Y-0019917D01*
X0009119Y-0020472D02*
Y-0020139D01*
X0009342Y-0020472D02*
Y-0020139D01*
X0009286Y-0020028D01*
X0009175D01*
X0009119Y-0020139D01*
X0009064Y-0020028D01*
X0008953D01*
X0008897Y-0020139D01*
Y-0020472D01*
X0008419D02*
Y-0020139D01*
X0008642Y-0020472D02*
Y-0020139D01*
X0008586Y-0020028D01*
X0008475D01*
X0008419Y-0020139D01*
X0008364Y-0020028D01*
X0008253D01*
X0008197Y-0020139D01*
Y-0020472D01*
X0006714D02*
X0006603Y-0020361D01*
X0006547Y-0020250D01*
Y-0020028D01*
X0006603Y-0019917D01*
X0006714Y-0019806D01*
X0006825D01*
X0006936Y-0019917D01*
X0006992Y-0020028D01*
Y-0020250D01*
X0006936Y-0020361D01*
X0006825Y-0020472D01*
X0006714D01*
X0006014D02*
X0005903Y-0020361D01*
X0005847Y-0020250D01*
Y-0020028D01*
X0005903Y-0019917D01*
X0006014Y-0019806D01*
X0006125D01*
X0006236Y-0019917D01*
X0006292Y-0020028D01*
Y-0020250D01*
X0006236Y-0020361D01*
X0006125Y-0020472D01*
X0006014D01*
X0005314D02*
X0005203Y-0020361D01*
X0005147Y-0020250D01*
Y-0020028D01*
X0005203Y-0019917D01*
X0005314Y-0019806D01*
X0005425D01*
X0005536Y-0019917D01*
X0005592Y-0020028D01*
Y-0020250D01*
X0005536Y-0020361D01*
X0005425Y-0020472D01*
X0005314D01*
X0004781D02*
X0004892D01*
Y-0020361D01*
X0004781D01*
Y-0020472D01*
X0004414D02*
X0003969D01*
X0004414Y-0020028D01*
Y-0019917D01*
X0004358Y-0019806D01*
X0004025D01*
X0003969Y-0019917D01*
X0030814Y-0018972D02*
Y-0018306D01*
X0030758Y-0018972D02*
X0031091D01*
X0031203Y-0018750D01*
Y-0018528D01*
X0031091Y-0018306D01*
X0030758D01*
X0030391Y-0018639D02*
X0030058D01*
X0030503Y-0018972D02*
X0030058D01*
Y-0018306D01*
X0030503D01*
X0029580Y-0018972D02*
Y-0018306D01*
X0029803D02*
X0029358D01*
X0029103Y-0018750D02*
X0028658D01*
X0029103Y-0018972D02*
Y-0018639D01*
X0028936Y-0018306D01*
X0028825D01*
X0028658Y-0018639D01*
Y-0018972D01*
X0028403D02*
X0028014D01*
Y-0018306D01*
X0027314Y-0018639D02*
X0027647D01*
X0027758Y-0018528D01*
Y-0018417D01*
X0027647Y-0018306D01*
X0027314D01*
Y-0018972D01*
X0027058Y-0018639D02*
X0026614D01*
X0026358Y-0018306D02*
Y-0018972D01*
X0026247Y-0018861D01*
X0026025Y-0018417D01*
X0025914Y-0018306D01*
Y-0018972D01*
X0025269D02*
X0025214Y-0018861D01*
Y-0018417D01*
X0025269Y-0018306D01*
X0025603D01*
X0025658Y-0018417D01*
Y-0018861D01*
X0025603Y-0018972D01*
X0025269D01*
X0024958Y-0018306D02*
Y-0018972D01*
X0024847Y-0018861D01*
X0024625Y-0018417D01*
X0024514Y-0018306D01*
Y-0018972D01*
X0022958D02*
X0022736D01*
X0022847D02*
Y-0018306D01*
X0022736Y-0018417D01*
X0009119Y-0018972D02*
Y-0018639D01*
X0009342Y-0018972D02*
Y-0018639D01*
X0009286Y-0018528D01*
X0009175D01*
X0009119Y-0018639D01*
X0009064Y-0018528D01*
X0008953D01*
X0008897Y-0018639D01*
Y-0018972D01*
X0008419D02*
Y-0018639D01*
X0008642Y-0018972D02*
Y-0018639D01*
X0008586Y-0018528D01*
X0008475D01*
X0008419Y-0018639D01*
X0008364Y-0018528D01*
X0008253D01*
X0008197Y-0018639D01*
Y-0018972D01*
X0006714D02*
X0006603Y-0018861D01*
X0006547Y-0018750D01*
Y-0018528D01*
X0006603Y-0018417D01*
X0006714Y-0018306D01*
X0006825D01*
X0006936Y-0018417D01*
X0006992Y-0018528D01*
Y-0018750D01*
X0006936Y-0018861D01*
X0006825Y-0018972D01*
X0006714D01*
X0006014D02*
X0005903Y-0018861D01*
X0005847Y-0018750D01*
Y-0018528D01*
X0005903Y-0018417D01*
X0006014Y-0018306D01*
X0006125D01*
X0006236Y-0018417D01*
X0006292Y-0018528D01*
Y-0018750D01*
X0006236Y-0018861D01*
X0006125Y-0018972D01*
X0006014D01*
X0005592Y-0018750D02*
X0005147D01*
X0005369Y-0018306D01*
X0005480D01*
Y-0018972D01*
X0004781D02*
X0004892D01*
Y-0018861D01*
X0004781D01*
Y-0018972D01*
X0004414D02*
X0004192D01*
X0004303D02*
Y-0018306D01*
X0004192Y-0018417D01*
X0030814Y-0017472D02*
Y-0016806D01*
X0030758Y-0017472D02*
X0031091D01*
X0031203Y-0017250D01*
Y-0017028D01*
X0031091Y-0016806D01*
X0030758D01*
X0030391Y-0017139D02*
X0030058D01*
X0030503Y-0017472D02*
X0030058D01*
Y-0016806D01*
X0030503D01*
X0029580Y-0017472D02*
Y-0016806D01*
X0029803D02*
X0029358D01*
X0029103Y-0017250D02*
X0028658D01*
X0029103Y-0017472D02*
Y-0017139D01*
X0028936Y-0016806D01*
X0028825D01*
X0028658Y-0017139D01*
Y-0017472D01*
X0028403D02*
X0028014D01*
Y-0016806D01*
X0027314Y-0017139D02*
X0027647D01*
X0027758Y-0017028D01*
Y-0016917D01*
X0027647Y-0016806D01*
X0027314D01*
Y-0017472D01*
X0027058Y-0017139D02*
X0026614D01*
X0026358Y-0016806D02*
Y-0017472D01*
X0026247Y-0017361D01*
X0026025Y-0016917D01*
X0025914Y-0016806D01*
Y-0017472D01*
X0025269D02*
X0025214Y-0017361D01*
Y-0016917D01*
X0025269Y-0016806D01*
X0025603D01*
X0025658Y-0016917D01*
Y-0017361D01*
X0025603Y-0017472D01*
X0025269D01*
X0024958Y-0016806D02*
Y-0017472D01*
X0024847Y-0017361D01*
X0024625Y-0016917D01*
X0024514Y-0016806D01*
Y-0017472D01*
X0022958D02*
X0022736D01*
X0022847D02*
Y-0016806D01*
X0022736Y-0016917D01*
X0009119Y-0017472D02*
Y-0017139D01*
X0009342Y-0017472D02*
Y-0017139D01*
X0009286Y-0017028D01*
X0009175D01*
X0009119Y-0017139D01*
X0009064Y-0017028D01*
X0008953D01*
X0008897Y-0017139D01*
Y-0017472D01*
X0008419D02*
Y-0017139D01*
X0008642Y-0017472D02*
Y-0017139D01*
X0008586Y-0017028D01*
X0008475D01*
X0008419Y-0017139D01*
X0008364Y-0017028D01*
X0008253D01*
X0008197Y-0017139D01*
Y-0017472D01*
X0006714D02*
X0006603Y-0017361D01*
X0006547Y-0017250D01*
Y-0017028D01*
X0006603Y-0016917D01*
X0006714Y-0016806D01*
X0006825D01*
X0006936Y-0016917D01*
X0006992Y-0017028D01*
Y-0017250D01*
X0006936Y-0017361D01*
X0006825Y-0017472D01*
X0006714D01*
X0006014D02*
X0005903Y-0017361D01*
X0005847Y-0017250D01*
Y-0017028D01*
X0005903Y-0016917D01*
X0006014Y-0016806D01*
X0006125D01*
X0006236Y-0016917D01*
X0006292Y-0017028D01*
Y-0017250D01*
X0006236Y-0017361D01*
X0006125Y-0017472D01*
X0006014D01*
X0005314D02*
X0005203Y-0017361D01*
X0005147Y-0017250D01*
Y-0017028D01*
X0005203Y-0016917D01*
X0005314Y-0016806D01*
X0005425D01*
X0005536Y-0016917D01*
X0005592Y-0017028D01*
Y-0017250D01*
X0005536Y-0017361D01*
X0005425Y-0017472D01*
X0005314D01*
X0004781D02*
X0004892D01*
Y-0017361D01*
X0004781D01*
Y-0017472D01*
X0004414D02*
X0004192D01*
X0004303D02*
Y-0016806D01*
X0004192Y-0016917D01*
X0022958Y-0015750D02*
X0022514D01*
X0022736Y-0015306D01*
X0022847D01*
Y-0015972D01*
X0009119D02*
Y-0015639D01*
X0009342Y-0015972D02*
Y-0015639D01*
X0009286Y-0015528D01*
X0009175D01*
X0009119Y-0015639D01*
X0009064Y-0015528D01*
X0008953D01*
X0008897Y-0015639D01*
Y-0015972D01*
X0008419D02*
Y-0015639D01*
X0008642Y-0015972D02*
Y-0015639D01*
X0008586Y-0015528D01*
X0008475D01*
X0008419Y-0015639D01*
X0008364Y-0015528D01*
X0008253D01*
X0008197Y-0015639D01*
Y-0015972D01*
X0006714D02*
X0006603Y-0015861D01*
X0006547Y-0015750D01*
Y-0015528D01*
X0006603Y-0015417D01*
X0006714Y-0015306D01*
X0006825D01*
X0006936Y-0015417D01*
X0006992Y-0015528D01*
Y-0015750D01*
X0006936Y-0015861D01*
X0006825Y-0015972D01*
X0006714D01*
X0006014D02*
X0005903Y-0015861D01*
X0005847Y-0015750D01*
Y-0015528D01*
X0005903Y-0015417D01*
X0006014Y-0015306D01*
X0006125D01*
X0006236Y-0015417D01*
X0006292Y-0015528D01*
Y-0015750D01*
X0006236Y-0015861D01*
X0006125Y-0015972D01*
X0006014D01*
X0005592D02*
X0005147D01*
X0005592Y-0015528D01*
Y-0015417D01*
X0005536Y-0015306D01*
X0005203D01*
X0005147Y-0015417D01*
X0004781Y-0015972D02*
X0004892D01*
Y-0015861D01*
X0004781D01*
Y-0015972D01*
X0004136D02*
X0004025Y-0015861D01*
X0003969Y-0015750D01*
Y-0015528D01*
X0004025Y-0015417D01*
X0004136Y-0015306D01*
X0004247D01*
X0004358Y-0015417D01*
X0004414Y-0015528D01*
Y-0015750D01*
X0004358Y-0015861D01*
X0004247Y-0015972D01*
X0004136D01*
X0031362Y-0013833D02*
X0030862D01*
X0031529Y-0014333D02*
X0030862D01*
Y-0013333D01*
X0031529D01*
X0030246Y-0014333D02*
Y-0013333D01*
X0030579D02*
X0029912D01*
X0029046Y-0014333D02*
X0028962Y-0014167D01*
Y-0013500D01*
X0029046Y-0013333D01*
X0029546D01*
X0029629Y-0013500D01*
Y-0014167D01*
X0029546Y-0014333D01*
X0029046D01*
X0028679Y-0013333D02*
Y-0014333D01*
X0028512Y-0014167D01*
X0028179Y-0013500D01*
X0028012Y-0013333D01*
Y-0014333D01*
X0022175D02*
Y-0013833D01*
X0022508Y-0013333D02*
X0022258Y-0013833D01*
X0022092D01*
X0021842Y-0013333D01*
X0021225Y-0014333D02*
Y-0013333D01*
X0021558D02*
X0020892D01*
X0020275Y-0014000D02*
X0020608Y-0014333D01*
X0019942Y-0014167D02*
X0020025Y-0014333D01*
X0020358D01*
X0020442Y-0014167D01*
X0020608Y-0014000D01*
Y-0013500D01*
X0020525Y-0013333D01*
X0020025D01*
X0019942Y-0013500D01*
Y-0014167D01*
X0015658Y-0014333D02*
X0015075D01*
Y-0013333D01*
X0014208Y-0014333D02*
X0014125Y-0014167D01*
Y-0013500D01*
X0014208Y-0013333D01*
X0014708D01*
X0014792Y-0013500D01*
Y-0014167D01*
X0014708Y-0014333D01*
X0014208D01*
X0013508D02*
Y-0013333D01*
X0013842D02*
X0013175D01*
X0007837Y-0014333D02*
Y-0013333D01*
X0007671Y-0013500D01*
X0007504Y-0013833D01*
X0007337Y-0013500D01*
X0007171Y-0013333D01*
Y-0014333D01*
X0006887Y-0014000D02*
X0006221D01*
X0006887Y-0014333D02*
Y-0013833D01*
X0006637Y-0013333D01*
X0006471D01*
X0006221Y-0013833D01*
Y-0014333D01*
X0005937D02*
X0005604D01*
X0005771D02*
Y-0013333D01*
X0005937D02*
X0005604D01*
X0004571Y-0014333D02*
Y-0013333D01*
X0004487Y-0014333D02*
X0004987D01*
X0005154Y-0014000D01*
Y-0013667D01*
X0004987Y-0013333D01*
X0004487D01*
X0001400Y-0014333D02*
Y-0013333D01*
X0001233Y-0013500D01*
X0001067Y-0013833D01*
X0000900Y-0013500D01*
X0000733Y-0013333D01*
Y-0014333D01*
X0000117D02*
Y-0013833D01*
X0000450Y-0013333D02*
X0000200Y-0013833D01*
X0000033D01*
X-0000217Y-0013333D01*
X-0000500Y-0013500D02*
X-0000583Y-0013333D01*
X-0001083D01*
X-0001167Y-0013500D01*
Y-0013667D01*
X-0001083Y-0013833D01*
X-0000583D01*
X-0000500Y-0014000D01*
Y-0014167D01*
X-0000583Y-0014333D01*
X-0001083D01*
X-0001167Y-0014167D01*
X0021687Y-0012333D02*
Y-0011333D01*
X0022021D02*
X0021354D01*
X0020821Y-0011833D02*
X0021071Y-0012333D01*
X0020404Y-0011833D02*
X0020904D01*
X0021071Y-0011667D01*
Y-0011500D01*
X0020904Y-0011333D01*
X0020404D01*
Y-0012333D01*
X0020121Y-0012000D02*
X0019454D01*
X0020121Y-0012333D02*
Y-0011833D01*
X0019871Y-0011333D01*
X0019704D01*
X0019454Y-0011833D01*
Y-0012333D01*
X0019171Y-0011833D02*
X0018504D01*
X0019171Y-0012333D02*
Y-0011333D01*
X0018504Y-0012333D02*
Y-0011333D01*
X0018221Y-0012167D02*
X0018137Y-0012333D01*
X0017637D01*
X0017554Y-0012167D01*
Y-0011500D01*
X0017637Y-0011333D01*
X0018137D01*
X0018221Y-0011500D01*
X0015946Y-0012333D02*
X0015362D01*
Y-0011333D01*
X0015079Y-0012333D02*
X0014496D01*
Y-0011333D01*
X0014212Y-0012333D02*
X0013879D01*
X0014046D02*
Y-0011333D01*
X0014212D02*
X0013879D01*
X0013179Y-0011833D02*
X0013429Y-0012333D01*
X0012762Y-0011833D02*
X0013262D01*
X0013429Y-0011667D01*
Y-0011500D01*
X0013262Y-0011333D01*
X0012762D01*
Y-0012333D01*
X0011896D02*
Y-0011333D01*
X0011812Y-0012333D02*
X0012312D01*
X0012479Y-0012000D01*
Y-0011667D01*
X0012312Y-0011333D01*
X0011812D01*
X0003700Y0000750D02*
X0003450Y0000500D01*
X0003950D02*
X0003700Y0000750D01*
Y0000250D02*
X0003950Y0000500D01*
X0003450D02*
X0003700Y0000250D01*
X0003400Y-0000400D02*
X0003150Y-0000650D01*
X0003650D02*
X0003400Y-0000400D01*
Y-0000900D02*
X0003650Y-0000650D01*
X0003150D02*
X0003400Y-0000900D01*
X0002500Y-0000300D02*
X0002250Y-0000550D01*
X0002750D02*
X0002500Y-0000300D01*
Y-0000800D02*
X0002750Y-0000550D01*
X0002250D02*
X0002500Y-0000800D01*
Y0000750D02*
X0002250Y0000500D01*
X0002750D02*
X0002500Y0000750D01*
Y0000250D02*
X0002750Y0000500D01*
X0002250D02*
X0002500Y0000250D01*
X-0000175Y-0020000D02*
Y-0020500D01*
X0000325Y-0020000D02*
X-0000175D01*
X0000325Y-0020500D02*
Y-0020000D01*
X-0000175Y-0020500D02*
X0000325D01*
Y-0020000D02*
X-0000175Y-0020500D01*
X0000325D02*
X-0000175Y-0020000D01*
X0000325Y-0018750D02*
X-0000175D01*
X0000075Y-0018500D02*
Y-0019000D01*
X0000325Y-0017000D02*
X-0000175Y-0017500D01*
X0000325D02*
X-0000175Y-0017000D01*
X0000075Y-0015500D02*
X-0000175Y-0015750D01*
X0000325D02*
X0000075Y-0015500D01*
Y-0016000D02*
X0000325Y-0015750D01*
X-0000175D02*
X0000075Y-0016000D01*
X0035550Y-0023050D02*
X-0001800D01*
X0035500Y-0023000D02*
X-0001750D01*
X0035500Y-0021000D02*
X-0001750D01*
X0035500Y-0019500D02*
X-0001750D01*
X0035500Y-0018000D02*
X-0001750D01*
X0035500Y-0016500D02*
X-0001750D01*
X0035500Y-0015000D02*
X-0001750D01*
X0035500Y-0014950D02*
X-0001750D01*
X0035500Y-0013000D02*
X-0001750D01*
X0035500Y-0012950D02*
X-0001750D01*
X0035500Y-0011000D02*
X-0001750D01*
X0035550Y-0010950D02*
X-0001800D01*
X0035550Y-0023000D02*
Y-0011000D01*
X0035500Y-0023000D02*
Y-0011000D01*
X0023958Y-0023000D02*
Y-0013000D01*
X0018408Y-0023000D02*
Y-0013000D01*
X0010342Y-0021000D02*
Y-0013000D01*
X0001950Y-0021000D02*
Y-0013000D01*
X0001900Y-0021000D02*
Y-0013000D01*
X-0001800Y-0023000D02*
Y-0011000D01*
X-0001750Y-0023000D02*
Y-0011000D01*
X0008661Y-0007874D02*
X0000000D01*
X-0001968Y-0005905D02*
Y0000000D01*
X0000000Y0001968D02*
X0006693D01*
X0008661Y0000000D02*
Y-0007874D01*
X0004089Y0000250D02*
X0003589Y-0000250D01*
X0004089D02*
X0003589Y0000250D01*
X0003104Y0000000D02*
X0002604D01*
X0002854Y0000250D02*
Y-0000250D01*
X0006443Y0000250D02*
Y-0000250D01*
X0006943Y0000250D02*
X0006443D01*
X0006943Y-0000250D02*
Y0000250D01*
X0006443Y-0000250D02*
X0006943D01*
Y0000250D02*
X0006443Y-0000250D01*
X0006943D02*
X0006443Y0000250D01*
X-0000250D02*
Y-0000250D01*
X0000250Y0000250D02*
X-0000250D01*
X0000250Y-0000250D02*
Y0000250D01*
X-0000250Y-0000250D02*
X0000250D01*
Y0000250D02*
X-0000250Y-0000250D01*
X0000250D02*
X-0000250Y0000250D01*
G01X-0001968Y-0005905D02*
G03X0000000Y-0007873I0001968J0000000D01*
Y0001968D02*
G03X-0001968Y0000000I0000000J0001968D01*
G01X0008661D02*
G03X0006693Y0001968I0001968J0000000D01*
M02*
