*
G04 Mass Parameters ***
*
G04 Image ***
*
%IND:\UTENTI\00.LAVORI IN CORSO\METALTRONICA\22-316-0\22-316-0.BOT*%
%ICAS*%
%MOIN*%
%IPPOS*%
%ASAXBY*%
G74*%FSLAN2X34Y34*%
*
G04 Aperture Definitions ***
*
%ADD10C,0.0866*%
%ADD11R,0.0709X0.0354*%
%ADD12C,0.0551*%
%ADD13C,0.0394*%
%ADD14C,0.0394*%
%ADD15C,0.0250*%
%ADD16C,0.0394*%
%ADD17C,0.0060*%
%ADD18R,0.0945X0.1299*%
%ADD19R,0.0472X0.1378*%
*
G04 Plot Data ***
*
G54D15*
G01X-0003100Y-0000500D02*
Y-0000250D01*
X-0003779Y0000429D01*
Y0001023D01*
X0001201Y0000999D02*
X-0000599D01*
X-0001650Y0002050D01*
X-0003400D01*
X-0003779Y0001670D01*
Y0001023D01*
X-0002205D02*
X-0002200Y0001019D01*
Y0000400D01*
X-0002000Y0000200D01*
Y-0000500D01*
X-0002992Y0001023D02*
Y0000392D01*
X-0002550Y-0000050D01*
Y-0000500D01*
G54D17*
G01X-0004895Y0001584D02*
X-0004973Y0001612D01*
Y0001775D01*
X-0004895Y0001802D01*
X-0004817D01*
X-0004739Y0001775D01*
Y0001612D01*
X-0004662Y0001584D01*
X-0004584D01*
X-0004506Y0001612D01*
Y0001775D01*
X-0004584Y0001802D01*
X-0004506Y0001949D02*
Y0002140D01*
X-0004973D01*
G54D10*
X0000000Y-0003346D03*
Y0003346D03*
G54D12*
Y-0000492D03*
G54D13*
Y0000492D03*
G54D14*
X-0002550Y-0000500D03*
G54D16*
X-0003100D03*
X0001201Y0000999D03*
X-0002000Y-0000500D03*
G54D18*
X-0000905Y-0001713D03*
X-0004842D03*
G54D19*
X-0003779Y0001023D03*
X-0002992D03*
X-0002205D03*
M02*
