*
G04 Mass Parameters ***
*
G04 Image ***
*
%IND:\UTENTI\00.LAVORI IN CORSO\METALTRONICA\22-316-0\22-316-0.SSB*%
%ICAS*%
%MOIN*%
%IPPOS*%
%ASAXBY*%
G74*%FSLAN2X34Y34*%
*
G04 Aperture Definitions ***
*
%ADD10C,0.0866*%
%ADD11R,0.0709X0.0354*%
%ADD12C,0.0551*%
%ADD13C,0.0394*%
%ADD14C,0.0394*%
%ADD15C,0.0250*%
%ADD16C,0.0394*%
%ADD17C,0.0060*%
%ADD18R,0.0945X0.1299*%
%ADD19R,0.0472X0.1378*%
%ADD20C,0.0100*%
*
G04 Plot Data ***
*
G54D17*
G01X-0000522Y-0000149D02*
X-0000615D01*
X-0000569D02*
Y-0000549D01*
X-0000615Y-0000483D01*
X-0000969Y-0000283D02*
Y-0000216D01*
X-0000945Y-0000149D01*
X-0000852D01*
X-0000829Y-0000216D01*
Y-0000549D01*
X-0000805D02*
X-0000899D01*
X-0001535Y-0001024D02*
Y-0001988D01*
Y-0002008D01*
X-0001890D01*
X-0003897D01*
X-0003898D01*
Y-0002047D01*
Y-0002244D01*
X-0003829D01*
Y-0002008D01*
X-0004409Y0000551D02*
X-0004173D01*
Y0000945D01*
X-0004409D01*
Y0000551D01*
Y0000079D01*
Y-0000827D01*
X-0004488D01*
Y-0000925D01*
X-0004587D01*
Y-0001102D01*
Y-0001260D01*
Y-0002165D01*
Y-0002323D01*
Y-0002500D01*
X-0004488D01*
Y-0002598D01*
X-0004606D01*
X-0004685D01*
X-0004764Y-0002520D01*
Y-0002205D01*
X-0004606D01*
Y-0002323D01*
Y-0002598D01*
X-0001142Y-0000827D02*
Y-0001102D01*
Y-0001220D01*
X-0000984D01*
Y-0000905D01*
X-0001063Y-0000827D01*
X-0001142D01*
X-0001260D01*
Y-0000925D01*
X-0001161D01*
Y-0001102D01*
Y-0001260D01*
Y-0002165D01*
X-0001083D01*
X-0000748D01*
X-0000630Y-0002047D01*
Y-0001929D01*
X-0000657Y-0001918D01*
Y-0002036D01*
X-0000759Y-0002138D01*
X-0000748Y-0002165D01*
X-0004252Y-0002559D02*
X-0003858D01*
Y-0002480D01*
X-0003248D01*
X-0003366Y-0002598D01*
X-0004370D01*
X-0004252Y-0002480D01*
Y-0002559D01*
X-0001535Y-0001988D02*
X-0001496D01*
Y-0002047D01*
Y-0002480D01*
Y-0002559D01*
X-0001890D01*
Y-0002480D01*
X-0002736D01*
X-0002618Y-0002598D01*
X-0001378D01*
X-0001496Y-0002480D01*
X-0003897Y-0002008D02*
X-0004213D01*
Y-0001988D01*
Y-0001024D01*
X-0001339Y0000551D02*
X-0001575D01*
Y0000945D01*
X-0001339D01*
Y0000551D01*
Y0000079D01*
X-0001693D01*
X-0002087D01*
X-0002322D01*
X-0002875D01*
X-0003110D01*
X-0003662D01*
X-0003897D01*
X-0004055D01*
X-0004409D01*
X-0001260Y-0000827D02*
X-0001339D01*
Y0000079D01*
X-0003041Y-0002008D02*
Y-0002244D01*
X-0003110D01*
Y-0002008D01*
X-0002254D02*
Y-0002244D01*
X-0002323D01*
Y-0002008D01*
X-0004213Y-0001988D02*
X-0004252D01*
Y-0002047D01*
Y-0002480D01*
X-0001161Y-0001287D02*
X-0001083D01*
X-0000759D01*
X-0000748Y-0001260D01*
X-0001083D01*
X-0001161D01*
X-0001260Y-0000925D02*
Y-0002500D01*
X-0001161D01*
Y-0002323D01*
Y-0002165D01*
X-0001496Y-0002047D02*
X-0001890D01*
Y-0002008D01*
X-0002736Y-0002480D02*
X-0002835Y-0002382D01*
Y-0002008D01*
X-0003248Y-0002480D02*
X-0003150Y-0002382D01*
Y-0002008D01*
X-0001142Y-0002598D02*
X-0001063D01*
X-0000984Y-0002520D01*
Y-0002205D01*
X-0001142D01*
Y-0002323D01*
Y-0002598D01*
X-0001260D01*
Y-0002500D01*
X-0004606Y-0001102D02*
Y-0000827D01*
X-0004685D01*
X-0004764Y-0000905D01*
Y-0001220D01*
X-0004606D01*
Y-0001102D01*
X-0004587D01*
X-0003829Y0000630D02*
X-0003819Y0000905D01*
Y0001496D01*
X-0003917D01*
Y0000905D01*
X-0003898Y0000630D01*
Y0000488D01*
X-0003730Y0000630D02*
X-0003740Y0000905D01*
Y0001496D01*
X-0003642D01*
Y0000905D01*
X-0003661Y0000630D01*
Y0000403D01*
Y0000305D01*
Y0000079D01*
X-0003898D02*
Y0000305D01*
Y0000403D01*
X-0003041Y0000630D02*
X-0003031Y0000905D01*
Y0001496D01*
X-0003130D01*
Y0000905D01*
X-0003110Y0000630D01*
Y0000347D01*
X-0002943Y0000630D02*
X-0002953Y0000905D01*
Y0001496D01*
X-0002854D01*
Y0000905D01*
X-0002874Y0000630D01*
Y0000403D01*
Y0000305D01*
Y0000079D01*
X-0003110D02*
Y0000305D01*
Y0000403D01*
X-0002323Y0000317D02*
Y0000630D01*
X-0002342Y0000905D01*
Y0001496D01*
X-0002244D01*
Y0000905D01*
X-0002254Y0000630D01*
X-0002155D02*
X-0002165Y0000905D01*
Y0001496D01*
X-0002067D01*
Y0000905D01*
X-0002087Y0000630D01*
Y0000403D01*
Y0000305D01*
Y0000079D01*
X-0002323D02*
Y0000305D01*
Y0000403D01*
X-0003730Y-0002008D02*
Y-0002244D01*
X-0003661D01*
Y-0002008D01*
X-0002943D02*
Y-0002244D01*
X-0002874D01*
Y-0002008D01*
X-0002155D02*
Y-0002244D01*
X-0002087D01*
Y-0002008D01*
X-0003740Y0001496D02*
X-0003819D01*
X-0003730Y0000079D02*
Y0000202D01*
X-0003829Y0000079D02*
Y0000202D01*
X-0002953Y0001496D02*
X-0003031D01*
X-0002943Y0000079D02*
Y0000202D01*
X-0003041Y0000079D02*
Y0000202D01*
X-0002165Y0001496D02*
X-0002244D01*
X-0002155Y0000079D02*
Y0000202D01*
X-0002254Y0000079D02*
Y0000202D01*
X-0003829Y-0002244D02*
X-0003730D01*
X-0003041D02*
X-0002943D01*
X-0002254D02*
X-0002155D01*
X-0004488Y-0002500D02*
Y-0000925D01*
X-0005118Y-0001378D02*
Y-0001535D01*
X-0005091Y-0001547D01*
Y-0001389D01*
X-0005118Y-0001378D01*
X-0005000Y-0001260D01*
X-0004989Y-0001287D01*
X-0004665D01*
X-0004587D01*
X-0005000Y-0001260D02*
X-0004665D01*
X-0004586D01*
X-0005118Y-0002047D02*
X-0005091Y-0002036D01*
Y-0001878D01*
X-0005118Y-0001890D01*
Y-0002047D01*
X-0005000Y-0002165D01*
X-0004989Y-0002138D01*
X-0004665D01*
X-0004587D01*
X-0005000Y-0002165D02*
X-0004665D01*
X-0004586D01*
X-0004606Y-0002323D02*
X-0004587D01*
X-0004606Y-0000827D02*
X-0004488D01*
X-0004989Y-0001287D02*
X-0005091Y-0001389D01*
X-0005118Y-0001614D02*
Y-0001811D01*
X-0004989Y-0002138D02*
X-0005091Y-0002036D01*
X-0000759Y-0001287D02*
X-0000657Y-0001389D01*
X-0000630Y-0001378D01*
Y-0001496D01*
X-0000657Y-0001507D01*
Y-0001389D01*
Y-0002036D02*
X-0000630Y-0002047D01*
Y-0001850D02*
Y-0001575D01*
X-0001161Y-0002138D02*
X-0001083D01*
X-0000759D01*
X-0000748Y-0001260D02*
X-0000630Y-0001378D01*
X-0001161Y-0002323D02*
X-0001142D01*
Y-0001102D02*
X-0001161D01*
X-0001496Y-0001988D02*
X-0001366Y-0001858D01*
Y-0000843D01*
X-0001890Y-0002047D02*
Y-0002480D01*
X-0002618Y-0002598D02*
X-0003366D01*
X-0001378D02*
X-0001260D01*
X-0004488D02*
X-0004370D01*
X-0004252Y-0001988D02*
X-0004392Y-0001848D01*
Y-0000833D01*
X-0003897Y-0002047D02*
X-0004252D01*
X-0003858Y-0002244D02*
Y-0002480D01*
X-0004173Y0000551D02*
Y0000077D01*
X-0001575Y0000551D02*
Y0000077D01*
G01X-0001335Y-0000827D02*
G03X-0001532Y-0001024I0000000J0000197D01*
G01X-0004209D02*
G03X-0004406Y-0000827I0000197J0000000D01*
G01X-0004409Y0000197D02*
G03X-0004291Y0000079I0000118J0000000D01*
G01X-0000664Y-0001517D02*
G03X-0000676Y-0001545I0000028J0000028D01*
G01X-0000675D02*
G03X-0000636Y-0001584I0000039J0000000D01*
Y-0001851D02*
G03X-0000675Y-0001890I0000000J0000039D01*
G03X-0000664Y-0001918I0000039J0000000D01*
G01X-0005114Y-0001615D02*
G03X-0005074Y-0001575I0000000J0000040D01*
G01X-0005075D02*
G03X-0005087Y-0001547I0000039J0000000D01*
Y-0001878D02*
G03X-0005075Y-0001850I0000027J0000028D01*
G03X-0005114Y-0001811I0000039J0000000D01*
G01X-0001459Y0000079D02*
G03X-0001341Y0000197I0000000J0000118D01*
G54D20*
G01X-0001710Y0000929D02*
X-0001877D01*
X-0001794D02*
Y0000429D01*
X-0001877Y0000512D01*
M02*
